<svg width="375" height="156" viewBox="0 0 375 156" fill="none" xmlns="http://www.w3.org/2000/svg">
<g opacity="0.4">
<path opacity="0.57" d="M544.007 86.7822V159.563H-14.9883V100.061L-1.94507 97.9621H14.2037L41.5323 105.39L92.4629 93.751H117.928L140.909 99.5645L186.25 77.0557H204.883L217.926 80.5711L235.938 87.4033L264.509 91.2169L289.353 84.2978L319.788 79.95L340.284 77.0557L357.675 83.0555L366.992 80.5711H386.246L404.394 83.9499L443.387 91.2169L494.939 97.341L506.641 94.5957L534.69 88.0244L544.007 86.7822Z" fill="#BD99A8"/>
<path d="M544.007 145.215V431.806H-14.9881V132.843L57.2961 103.03L97.9661 74.8688L100.935 72.8067L129.729 54.4841L146.189 49.5152L170.437 48.3724L174.648 48.1736L175.12 48.0743L189.517 45.0681L211.119 50.4469L227.939 45.5153L230.485 46.0246L233.529 46.6333L252.609 50.4469L268.919 46.8569L280.037 51.9997L287.18 56.6579L307.005 72.9185L310.285 75.6017L369.787 109.452L400.867 115.663L417.388 126.222L448.468 128.085H472.927L507.97 141.128H531.113L544.007 145.215Z" fill="url(#paint0_linear_101_2230)"/>
<path d="M313.104 79.726L291.999 71.043C291.999 71.043 289.825 67.6269 289.353 67.6269C288.881 67.6269 278.173 64.7574 278.173 64.7574L280.658 69.0306L289.353 74.7696L271.192 72.2355L269.739 76.7944L261.664 72.6579L253.18 69.5523L257.938 78.4465L248.832 71.6144L239.926 66.2356L235.379 67.8878L236.82 73.0678L245.106 81.5521L229.988 74.9311L220.05 72.0368L225.019 65.6642H216.324L215.293 71.4157L225.23 84.6576L207.988 74.9311L205.914 67.217L200.597 64.3723L198.734 72.8566L198.113 84.6576L193.964 94.5953L192.933 84.0365L192.523 75.9621L184.647 71.2045L183.616 75.1423L185.07 85.2787L178.026 72.1858H167.058L167.877 80.931L164.772 92.732L160.847 69.13L154.635 69.7511L150.698 74.9311L138.897 89.2165L131.655 92.3221L139.518 84.0365L142.412 75.341L141.791 68.099L134.549 69.13L128.748 78.8689V69.3412L97.9658 74.869L100.935 72.8069L129.729 54.4843L146.188 49.5155L168.238 46.5093L172.995 45.0684H189.517L211.119 50.4471L227.938 45.5156L230.485 46.0249L234.696 45.0684H239.876L252.609 50.4471L268.919 46.8571L280.037 51.9999L287.179 56.6582L307.005 72.9187L313.104 79.726Z" fill="white"/>
<g style="mix-blend-mode:multiply" opacity="0.25">
<path d="M60.7867 111.725L71.9666 113.8L138.636 62.4593L93.5066 108.421L96.1897 124.359L135.742 118.359L147.741 103.452L156.027 64.5214H157.269L161.828 103.452L174.66 124.148L199.504 131.191L211.218 115.887L201.579 92.6823L199.914 59.9749H201.157L206.436 88.024L212.026 91.7507L214.821 91.1296L238.112 122.495L247.951 131.191L264.509 138.334L284.807 136.16L284.695 126.222L249.292 86.4713L238.423 69.7014L232.833 56.0371H234.386L241.069 68.9313L258.149 85.5396L316.272 123.738L348.57 132.023L372.582 129.638L370.408 122.185L317.303 84.608L380.345 117.216L400.842 120.632L416.059 136.781L447.114 142.781L480.654 165.14L423.935 167.215L373.414 145.687L368.445 147.34L379.215 175.078L351.464 190.506L321.34 193.612L285.937 185.848L307.366 169.699L294.943 161.625L282.521 150.135L285.627 158.519L282.521 175.91L259.851 188.954L261.714 204.792L244.944 215.661L236.249 220.63L205.504 213.487L186.561 197.649L201.467 176.532L194.324 165.973L202.399 149.824L199.293 140.818L198.051 148.582L184.387 165.662L190.287 177.774L175.381 197.339L156.126 210.382L131.282 209.45L107.991 210.382L87.1837 215.351L46.8119 211.624L57.3707 195.475L66.3767 179.327L100.537 164.42L113.891 159.762L116.487 142.992L124.761 134.296L110.786 138.334L109.544 153.861L84.3887 161.004L53.0229 169.699L20.7254 201.065L-14.9881 201.997V138.334L60.7867 111.725Z" fill="#E3BFA6"/>
</g>
<path style="mix-blend-mode:multiply" opacity="0.54" d="M218.449 157.506L209.405 158.611L190.772 168.474L185.567 177.443L165.829 180.797L160.773 190.387L147.481 195.604L128.301 195.319L137.345 189.84L145.282 183.816L144.463 179.704L152.139 177.443L158.437 168.474L147.208 173.953L122.55 180.797V187.691L84.4514 197.517L88.8364 190.946L99.8051 186.014L103.358 180.524L74.3274 186.275L65.8182 199.989L56.5016 205.741L51.3092 204.362L21.9806 213.964L6.09274 210.113L21.434 203.815V197.517L35.9555 187.691L23.0738 189.84L9.38459 197.791L-7.33556 195.604L-15 202.101V223.579L41.5703 221.728L71.4827 227.641L77.0478 224.647L103.097 221.703L111.581 216.436L124.736 213.144L120.078 218.896L129.258 222.672L152.139 222.138L171.319 225.032H171.344L189.132 222.535L191.667 220.759L168.773 215.132L160.773 210.2L166.934 208.747L183.381 200.536L190.772 194.499L186.946 184.636L198.71 182.449L201.455 177.443L213.517 162.723L223.107 160.251L225.293 153.68L218.449 157.506Z" fill="url(#paint1_linear_101_2230)"/>
<path style="mix-blend-mode:multiply" opacity="0.54" d="M400.929 135.868L380.47 153.681H368.06L349.427 162.724L338.458 160.538L328.595 172.041L315.44 174.364H298.459L294.633 168.476L309.428 161.072L311.068 153.681L320.372 143.83H302.285C302.285 143.83 293.118 162.724 292.509 162.724C291.9 162.724 278.932 166.414 278.932 166.414L280.571 174.426L254.261 189.022L248.733 202.798L241.33 202.177L231.057 202.587L224.063 208.338L213.79 211.021H205.567L191.666 220.76L189.132 222.537L171.344 225.034L180.549 226.412L198.585 229.121L247.901 222.959L281.602 216.798L299.614 220.624L300.521 215.332L325.179 211.63L337.092 205.059L331.75 197.655L349.427 186.972L353.129 172.587L362.992 168.476L380.669 165.184L409.153 139.706L418.482 127.657L400.929 135.868Z" fill="url(#paint2_linear_101_2230)"/>
<path style="mix-blend-mode:multiply" opacity="0.54" d="M526.702 180.525L535.212 176.414L540.143 163.544L543.994 161.433V117.421L543.833 117.508H530.69L525.758 130.663L511.784 136.824L506.02 140.116L502.74 147.507L483.424 150.389H473.548L481.362 140.116L489.995 133.943L489.585 126.141L473.548 135.595L460.406 150.389L447.661 163.544H431.214L415.599 178.749H402.854L390.531 180.799L385.6 186.973L401.214 192.314L416.419 189.432L427.114 192.314L437.387 185.32L443.139 189.842L443.549 202.587L408.618 206.699L395.873 214.102L390.121 210.401L373.265 214.102L363.327 219.581L363.314 219.593L383.128 218.848L432.866 225.966L446.008 220.487L471.909 221.73L486.703 221.32L510.541 218.028L543.994 225.046V179.159H543.969L540.143 187.097L528.628 189.022L520.951 195.059H514.939L523.15 188.749L526.702 180.525Z" fill="url(#paint3_linear_101_2230)"/>
<path style="mix-blend-mode:multiply" opacity="0.54" d="M147.208 133.122L133.506 141.345L120.363 143.829L106.388 153.68L99.5315 158.885L113.78 156.96L117.332 151.755L133.233 153.68L138.711 146.277L155.431 133.122H147.208Z" fill="url(#paint4_linear_101_2230)"/>
<path style="mix-blend-mode:multiply" opacity="0.54" d="M48.279 139.42L37.186 146.004H24.7267L22.8012 160.252L13.4971 168.476L24.9999 171.221L32.1178 164.078L35.4097 153.681H44.453L49.9311 143.83L60.8874 140.526L48.279 139.42Z" fill="url(#paint5_linear_101_2230)"/>
<path style="mix-blend-mode:multiply" opacity="0.54" d="M239.555 114.215L228.587 123.544L223.382 136.414L204.202 146.003H213.519L221.73 143.83H229.953L237.916 127.656H246.127L239.555 114.215Z" fill="url(#paint6_linear_101_2230)"/>
<path style="mix-blend-mode:multiply" opacity="0.54" d="M339.975 133.123L332.572 130.116L323.528 135.185L333.391 137.234L335.864 143.83L342.435 139.421L353.54 133.123L356.41 124.912L339.975 133.123Z" fill="url(#paint7_linear_101_2230)"/>
<g opacity="0.4">
<path d="M302.43 -0.612782L301.938 3.8045L299.507 3.48128L299.064 3.79471L297.546 4.8574L294.261 9.32366L292.192 8.97106L289.399 9.01024L289.643 6.83588L286.521 7.16399L284.542 8.04549L284.203 10.5969L284.199 10.6165L284.059 11.6498V11.6547L286.431 11.3168L289.53 12.5362L287.628 14.7302V14.7351L284.98 16.1798L283.751 18.4668L283.747 18.4716L281.628 19.2503L276.585 18.5892L271.985 20.6313L271.737 19.5001L269.008 18.981L266.55 20.7782L264.625 20.9888L264.191 21.0378H264.187L265.492 18.1093L263.753 17.4726L261.597 18.5745L258.322 17.5755V17.5706H258.326L259.664 16.3658L256.916 16.0035L252.235 18.8145L249.967 18.9222V18.9173H249.972L251.092 17.6048H251.088L248.883 16.4981L243.171 19.0887H243.167L241.563 19.2895V19.2846L240.835 17.9525L240.501 17.3502L244.925 13.501L249.859 12.4628L252.601 9.47547L255.764 9.48527L259.374 8.16302L259.307 6.11599L262.402 3.33927L264.882 2.68304L267.137 0.699671L272.18 -1.25432L273.811 -1.03884L272.83 0.626212L273.088 2.0513L274.583 1.42935L279.915 0.254023L283.679 -1.77832L285.161 -0.847849L284.352 1.65463L287.303 2.85934L289.589 1.28244L294.184 -0.074089L293.958 1.93867L295.264 2.35493L297.04 0.626212L302.43 -0.612782Z" fill="url(#paint8_linear_101_2230)"/>
<path style="mix-blend-mode:multiply" opacity="0.54" d="M297.973 4.74072L295 6.34282L292.201 7.29382L290.399 7.10441L289.626 7.70421L289.393 9.37734L292.214 9.34183L294.309 9.62989L297.639 6.03503L299.171 5.17874L297.973 4.74072Z" fill="url(#paint9_linear_101_2230)"/>
</g>
</g>
<defs>
<linearGradient id="paint0_linear_101_2230" x1="264.509" y1="431.806" x2="264.509" y2="45.0681" gradientUnits="userSpaceOnUse">
<stop stop-color="#705C9C"/>
<stop offset="0.22" stop-color="#7E659C"/>
<stop offset="0.64" stop-color="#A37F9E"/>
<stop offset="1" stop-color="#C999A1"/>
</linearGradient>
<linearGradient id="paint1_linear_101_2230" x1="-15" y1="190.66" x2="225.293" y2="190.66" gradientUnits="userSpaceOnUse">
<stop stop-color="#D9CFD4"/>
<stop offset="0.58" stop-color="#ECDCE5"/>
<stop offset="1" stop-color="#F5E3ED"/>
</linearGradient>
<linearGradient id="paint2_linear_101_2230" x1="171.344" y1="178.389" x2="418.482" y2="178.389" gradientUnits="userSpaceOnUse">
<stop stop-color="#D9CFD4"/>
<stop offset="0.58" stop-color="#ECDCE5"/>
<stop offset="1" stop-color="#F5E3ED"/>
</linearGradient>
<linearGradient id="paint3_linear_101_2230" x1="363.314" y1="171.693" x2="543.994" y2="171.693" gradientUnits="userSpaceOnUse">
<stop stop-color="#D9CFD4"/>
<stop offset="0.58" stop-color="#ECDCE5"/>
<stop offset="1" stop-color="#F5E3ED"/>
</linearGradient>
<linearGradient id="paint4_linear_101_2230" x1="99.5315" y1="146.003" x2="155.431" y2="146.003" gradientUnits="userSpaceOnUse">
<stop stop-color="#D9CFD4"/>
<stop offset="0.58" stop-color="#ECDCE5"/>
<stop offset="1" stop-color="#F5E3ED"/>
</linearGradient>
<linearGradient id="paint5_linear_101_2230" x1="13.4971" y1="155.321" x2="60.8874" y2="155.321" gradientUnits="userSpaceOnUse">
<stop stop-color="#D9CFD4"/>
<stop offset="0.58" stop-color="#ECDCE5"/>
<stop offset="1" stop-color="#F5E3ED"/>
</linearGradient>
<linearGradient id="paint6_linear_101_2230" x1="204.202" y1="130.116" x2="246.127" y2="130.116" gradientUnits="userSpaceOnUse">
<stop stop-color="#D9CFD4"/>
<stop offset="0.58" stop-color="#ECDCE5"/>
<stop offset="1" stop-color="#F5E3ED"/>
</linearGradient>
<linearGradient id="paint7_linear_101_2230" x1="323.528" y1="134.377" x2="356.41" y2="134.377" gradientUnits="userSpaceOnUse">
<stop stop-color="#D9CFD4"/>
<stop offset="0.58" stop-color="#ECDCE5"/>
<stop offset="1" stop-color="#F5E3ED"/>
</linearGradient>
<linearGradient id="paint8_linear_101_2230" x1="267.706" y1="0.396523" x2="279.11" y2="21.049" gradientUnits="userSpaceOnUse">
<stop stop-color="#FFF0C9"/>
<stop offset="1" stop-color="#FCC2BF"/>
</linearGradient>
<linearGradient id="paint9_linear_101_2230" x1="289.774" y1="6.66749" x2="298.787" y2="7.93532" gradientUnits="userSpaceOnUse">
<stop stop-color="#D9CFD4"/>
<stop offset="0.58" stop-color="#ECDCE5"/>
<stop offset="1" stop-color="#F5E3ED"/>
</linearGradient>
</defs>
</svg>
