<svg width="12" height="10" viewBox="0 0 12 10" fill="none" xmlns="http://www.w3.org/2000/svg">
<path d="M7.55344 9.79995C7.40514 9.7999 7.26003 9.75682 7.13568 9.67595C7.01133 9.59507 6.91306 9.47985 6.85276 9.34424C6.79247 9.20863 6.77274 9.05843 6.79596 8.91182C6.81917 8.76522 6.88434 8.62849 6.98358 8.51819L9.45636 5.76792H0.820719C0.617215 5.76792 0.422046 5.687 0.278146 5.54297C0.134247 5.39894 0.0534058 5.2036 0.0534058 4.99991C0.0534058 4.79622 0.134247 4.60088 0.278146 4.45685C0.422046 4.31282 0.617215 4.23191 0.820719 4.23191H9.45636L6.98358 1.48163C6.84744 1.33025 6.77696 1.13095 6.78764 0.927569C6.79832 0.724184 6.88929 0.533375 7.04053 0.397119C7.19176 0.260863 7.39088 0.190321 7.59409 0.201011C7.79729 0.211701 7.98792 0.302747 8.12406 0.454121L11.7441 4.47978C11.7956 4.5357 11.8386 4.59902 11.8714 4.66766C11.8808 4.68753 11.8894 4.70741 11.8973 4.72766L11.8977 4.72916C11.9227 4.79577 11.9384 4.86557 11.9441 4.93652V4.9369L11.9445 4.93839C11.946 4.95865 11.9467 4.97927 11.9467 4.9999V5.00102C11.9467 5.02127 11.946 5.04152 11.9445 5.0614L11.9441 5.0629V5.06329C11.9384 5.13424 11.9227 5.20404 11.8977 5.27065L11.8973 5.27215C11.8894 5.2924 11.8808 5.31228 11.8714 5.33215C11.8386 5.40078 11.7956 5.46411 11.7441 5.52002L8.12406 9.54568C8.05215 9.62584 7.96417 9.68992 7.86584 9.73374C7.76752 9.77755 7.66106 9.80011 7.55344 9.79995V9.79995Z" fill="#727273"/>
</svg>
