<svg width="25" height="24" viewBox="0 0 25 24" fill="none" xmlns="http://www.w3.org/2000/svg">
<g id="ic/user">
<g id="Group">
<path id="Vector" d="M12.231 12C13.4245 12 14.5691 11.5259 15.413 10.682C16.2569 9.83807 16.731 8.69347 16.731 7.5C16.731 6.30653 16.2569 5.16193 15.413 4.31802C14.5691 3.47411 13.4245 3 12.231 3C11.0375 3 9.89295 3.47411 9.04904 4.31802C8.20512 5.16193 7.73102 6.30653 7.73102 7.5C7.73102 8.69347 8.20512 9.83807 9.04904 10.682C9.89295 11.5259 11.0375 12 12.231 12Z" stroke="#727273" stroke-width="1.5" stroke-linecap="round" stroke-linejoin="round"/>
<path id="Vector_2" d="M19.962 21C19.962 17.517 16.497 14.7 12.231 14.7C7.965 14.7 4.5 17.517 4.5 21" stroke="#727273" stroke-width="1.5" stroke-linecap="round" stroke-linejoin="round"/>
</g>
</g>
</svg>
