<svg width="25" height="24" viewBox="0 0 25 24" fill="none" xmlns="http://www.w3.org/2000/svg">
<g id="wallet">
<g id="Group">
<path id="Wallet" d="M17.016 3C20.464 3 22.5 4.985 22.5 8.382H18.269V8.416C16.305 8.416 14.713 9.968 14.713 11.883C14.713 13.798 16.305 15.35 18.269 15.35H22.5V15.662C22.5 19.015 20.464 21 17.016 21H7.984C4.536 21 2.5 19.015 2.5 15.662V8.338C2.5 4.985 4.536 3 7.984 3H17.016ZM21.753 9.872C22.166 9.872 22.5 10.198 22.5 10.6V13.131C22.4953 13.3259 22.4145 13.5112 22.2749 13.6473C22.1353 13.7833 21.9479 13.8593 21.753 13.859H18.35C17.356 13.872 16.486 13.209 16.261 12.264C16.2055 11.9738 16.2155 11.6748 16.2904 11.389C16.3654 11.1031 16.5032 10.8377 16.694 10.612C16.8882 10.3827 17.1294 10.198 17.4014 10.0703C17.6733 9.94256 17.9696 9.87495 18.27 9.872H21.753ZM18.749 11.042H18.42C18.219 11.0394 18.0251 11.1159 17.88 11.255C17.8093 11.3228 17.7531 11.4041 17.7146 11.4942C17.6761 11.5842 17.6562 11.6811 17.656 11.779C17.656 12.192 17.996 12.529 18.42 12.533H18.749C18.9491 12.5354 19.1419 12.4583 19.2852 12.3186C19.4284 12.1789 19.5104 11.9881 19.513 11.788C19.5118 11.6889 19.4911 11.5909 19.4521 11.4998C19.4131 11.4086 19.3565 11.326 19.2855 11.2568C19.2146 11.1875 19.1307 11.1329 19.0386 11.096C18.9466 11.0592 18.8482 11.0408 18.749 11.042ZM12.882 6.892H7.238C7.03929 6.88931 6.84752 6.96507 6.70431 7.10285C6.5611 7.24064 6.47798 7.42933 6.473 7.628C6.473 8.041 6.814 8.378 7.238 8.382H12.882C12.9812 8.38332 13.0798 8.36507 13.1719 8.32828C13.2641 8.29149 13.3481 8.23689 13.4192 8.1676C13.4902 8.09832 13.5469 8.0157 13.586 7.92448C13.6251 7.83327 13.6458 7.73524 13.647 7.636C13.6457 7.53685 13.6249 7.43893 13.5857 7.34782C13.5466 7.25672 13.4899 7.17423 13.4188 7.10504C13.3478 7.03586 13.2638 6.98135 13.1717 6.94463C13.0796 6.9079 12.9812 6.89068 12.882 6.892Z" fill="#727273"/>
</g>
</g>
</svg>
