<svg width="20" height="20" viewBox="0 0 20 20" fill="none" xmlns="http://www.w3.org/2000/svg">
<rect width="20" height="20" rx="10" fill="#1FB53A"/>
<path fill-rule="evenodd" clip-rule="evenodd" d="M7.97077 15.4999H8.73208V15.4923H9.54257C9.58352 15.4915 9.62432 15.4874 9.66454 15.4799C11.0839 15.2435 12.336 14.668 13.355 13.6861C15.6016 11.5219 16.2134 8.92936 15.4265 6.0045C15.1639 5.03113 13.957 4.3341 12.9734 4.53447C11.3583 4.86494 10.6491 6.55813 11.5786 7.86672C11.7279 8.0758 11.8558 8.29843 11.9603 8.53147C12.8121 10.4488 12.1609 12.7526 10.3963 14.0754C9.67815 14.6182 8.83896 14.992 7.94519 15.1675C7.93979 15.1685 7.93436 15.1694 7.92891 15.1704C7.81743 15.1901 7.70069 15.2107 7.70913 15.3574C7.71741 15.5014 7.83857 15.5006 7.94841 15.4999C7.95593 15.4999 7.9634 15.4999 7.97077 15.4999ZM5.17606 12.4435C5.76179 13.0083 6.55307 13.3295 7.38085 13.3386C8.21293 13.3354 9.01021 13.0159 9.60006 12.4493C10.1899 11.8827 10.5248 11.1145 10.5323 10.3112C10.489 9.53428 10.1386 8.803 9.55341 8.26805C8.96821 7.73311 8.19277 7.43525 7.38688 7.43586C6.58098 7.43647 5.80603 7.73549 5.2217 8.27133C4.63737 8.80716 4.28818 9.53897 4.24609 10.316C4.25657 11.1151 4.59032 11.8787 5.17606 12.4435Z" fill="white"/>
</svg>
