<svg width="33" height="32" viewBox="0 0 33 32" fill="none" xmlns="http://www.w3.org/2000/svg">
<g id="ic/service">
<g id="Group">
<path id="Vector" d="M8.53706 18.3704C7.9084 18.3704 7.30548 18.1206 6.86095 17.6761C6.41642 17.2316 6.16669 16.6287 6.16669 16C6.16669 15.3713 6.41642 14.7684 6.86095 14.3239C7.30548 13.8794 7.9084 13.6296 8.53706 13.6296C9.16572 13.6296 9.76863 13.8794 10.2132 14.3239C10.6577 14.7684 10.9074 15.3713 10.9074 16C10.9074 16.6287 10.6577 17.2316 10.2132 17.6761C9.76863 18.1206 9.16572 18.3704 8.53706 18.3704Z" fill="#1FB53A"/>
<path id="Vector_2" d="M16.8334 18.3704C16.2047 18.3704 15.6018 18.1206 15.1572 17.6761C14.7127 17.2316 14.463 16.6287 14.463 16C14.463 15.3713 14.7127 14.7684 15.1572 14.3239C15.6018 13.8794 16.2047 13.6296 16.8334 13.6296C17.462 13.6296 18.0649 13.8794 18.5095 14.3239C18.954 14.7684 19.2037 15.3713 19.2037 16C19.2037 16.6287 18.954 17.2316 18.5095 17.6761C18.0649 18.1206 17.462 18.3704 16.8334 18.3704Z" fill="#1FB53A"/>
<path id="Vector_3" d="M25.1296 18.3704C24.501 18.3704 23.8981 18.1206 23.4535 17.6761C23.009 17.2316 22.7593 16.6287 22.7593 16C22.7593 15.3713 23.009 14.7684 23.4535 14.3239C23.8981 13.8794 24.501 13.6296 25.1296 13.6296C25.7583 13.6296 26.3612 13.8794 26.8058 14.3239C27.2503 14.7684 27.5 15.3713 27.5 16C27.5 16.6287 27.2503 17.2316 26.8058 17.6761C26.3612 18.1206 25.7583 18.3704 25.1296 18.3704Z" fill="#1FB53A"/>
<path id="Vector_4" d="M8.53706 26.6665C7.9084 26.6665 7.30548 26.4168 6.86095 25.9723C6.41642 25.5277 6.16669 24.9248 6.16669 24.2962C6.16669 23.6675 6.41642 23.0646 6.86095 22.62C7.30548 22.1755 7.9084 21.9258 8.53706 21.9258C9.16572 21.9258 9.76863 22.1755 10.2132 22.62C10.6577 23.0646 10.9074 23.6675 10.9074 24.2962C10.9074 24.9248 10.6577 25.5277 10.2132 25.9723C9.76863 26.4168 9.16572 26.6665 8.53706 26.6665Z" fill="#303032"/>
<path id="Vector_5" d="M16.8334 26.6665C16.2047 26.6665 15.6018 26.4168 15.1572 25.9723C14.7127 25.5277 14.463 24.9248 14.463 24.2962C14.463 23.6675 14.7127 23.0646 15.1572 22.62C15.6018 22.1755 16.2047 21.9258 16.8334 21.9258C17.462 21.9258 18.0649 22.1755 18.5095 22.62C18.954 23.0646 19.2037 23.6675 19.2037 24.2962C19.2037 24.9248 18.954 25.5277 18.5095 25.9723C18.0649 26.4168 17.462 26.6665 16.8334 26.6665Z" fill="#303032"/>
<path id="Vector_6" d="M25.1296 26.6665C24.501 26.6665 23.8981 26.4168 23.4535 25.9723C23.009 25.5277 22.7593 24.9248 22.7593 24.2962C22.7593 23.6675 23.009 23.0646 23.4535 22.62C23.8981 22.1755 24.501 21.9258 25.1296 21.9258C25.7583 21.9258 26.3612 22.1755 26.8058 22.62C27.2503 23.0646 27.5 23.6675 27.5 24.2962C27.5 24.9248 27.2503 25.5277 26.8058 25.9723C26.3612 26.4168 25.7583 26.6665 25.1296 26.6665Z" fill="#303032"/>
<path id="Vector_7" d="M8.53706 10.074C7.9084 10.074 7.30548 9.82426 6.86095 9.37973C6.41642 8.9352 6.16669 8.33228 6.16669 7.70362C6.16669 7.07496 6.41642 6.47205 6.86095 6.02752C7.30548 5.58299 7.9084 5.33325 8.53706 5.33325C9.16572 5.33325 9.76863 5.58299 10.2132 6.02752C10.6577 6.47205 10.9074 7.07496 10.9074 7.70362C10.9074 8.33228 10.6577 8.9352 10.2132 9.37973C9.76863 9.82426 9.16572 10.074 8.53706 10.074Z" fill="#303032"/>
<path id="Vector_8" d="M16.8334 10.074C16.2047 10.074 15.6018 9.82426 15.1572 9.37973C14.7127 8.9352 14.463 8.33228 14.463 7.70362C14.463 7.07496 14.7127 6.47205 15.1572 6.02752C15.6018 5.58299 16.2047 5.33325 16.8334 5.33325C17.462 5.33325 18.0649 5.58299 18.5095 6.02752C18.954 6.47205 19.2037 7.07496 19.2037 7.70362C19.2037 8.33228 18.954 8.9352 18.5095 9.37973C18.0649 9.82426 17.462 10.074 16.8334 10.074Z" fill="#303032"/>
<path id="Vector_9" d="M25.1296 10.074C24.501 10.074 23.8981 9.82426 23.4535 9.37973C23.009 8.9352 22.7593 8.33228 22.7593 7.70362C22.7593 7.07496 23.009 6.47205 23.4535 6.02752C23.8981 5.58299 24.501 5.33325 25.1296 5.33325C25.7583 5.33325 26.3612 5.58299 26.8058 6.02752C27.2503 6.47205 27.5 7.07496 27.5 7.70362C27.5 8.33228 27.2503 8.9352 26.8058 9.37973C26.3612 9.82426 25.7583 10.074 25.1296 10.074Z" fill="#303032"/>
</g>
</g>
</svg>
