<svg width="25" height="24" viewBox="0 0 25 24" fill="none" xmlns="http://www.w3.org/2000/svg">
<g id="solar:widget-2-bold">
<g id="Group">
<path id="Vector" fill-rule="evenodd" clip-rule="evenodd" d="M2.5 6.634C2.5 5.40499 2.98822 4.22631 3.85727 3.35727C4.72631 2.48822 5.90499 2 7.134 2C8.36301 2 9.54169 2.48822 10.4107 3.35727C11.2798 4.22631 11.768 5.40499 11.768 6.634C11.768 7.86301 11.2798 9.04169 10.4107 9.91073C9.54169 10.7798 8.36301 11.268 7.134 11.268C5.90499 11.268 4.72631 10.7798 3.85727 9.91073C2.98822 9.04169 2.5 7.86301 2.5 6.634ZM13.232 17.366C13.232 16.7575 13.3519 16.1549 13.5847 15.5926C13.8176 15.0304 14.159 14.5196 14.5893 14.0893C15.0196 13.659 15.5304 13.3176 16.0926 13.0847C16.6549 12.8519 17.2575 12.732 17.866 12.732C18.4745 12.732 19.0771 12.8519 19.6394 13.0847C20.2016 13.3176 20.7124 13.659 21.1427 14.0893C21.573 14.5196 21.9144 15.0304 22.1473 15.5926C22.3801 16.1549 22.5 16.7575 22.5 17.366C22.5 18.595 22.0118 19.7737 21.1427 20.6427C20.2737 21.5118 19.095 22 17.866 22C16.637 22 15.4583 21.5118 14.5893 20.6427C13.7202 19.7737 13.232 18.595 13.232 17.366Z" fill="#727273"/>
<path id="Vector_2" d="M2.5 17.5C2.5 15.379 2.5 14.318 3.159 13.659C3.818 13 4.879 13 7 13C9.121 13 10.182 13 10.841 13.659C11.5 14.318 11.5 15.379 11.5 17.5C11.5 19.621 11.5 20.682 10.841 21.341C10.182 22 9.121 22 7 22C4.879 22 3.818 22 3.159 21.341C2.5 20.682 2.5 19.621 2.5 17.5ZM13.5 6.5C13.5 4.379 13.5 3.318 14.159 2.659C14.818 2 15.879 2 18 2C20.121 2 21.182 2 21.841 2.659C22.5 3.318 22.5 4.379 22.5 6.5C22.5 8.621 22.5 9.682 21.841 10.341C21.182 11 20.121 11 18 11C15.879 11 14.818 11 14.159 10.341C13.5 9.682 13.5 8.621 13.5 6.5Z" fill="#727273"/>
</g>
</g>
</svg>
