<svg width="32" height="32" viewBox="0 0 32 32" fill="none" xmlns="http://www.w3.org/2000/svg">
<g id="solar:crown-line-duotone">
<g id="Group">
<path id="Vector" d="M6.66669 23.3333H25.3334" stroke="#1FB53A" stroke-width="1.125" stroke-linecap="round"/>
<path id="Vector_2" d="M23.2933 14.9933L22.588 14.2853L23.2947 14.9933H23.2933ZM8.70534 14.9933L8.00001 15.7027L8.70668 14.9933H8.70534ZM10.6627 15.9453L11.064 16.8613L10.6613 15.9453H10.6627ZM17.2107 9.044L16.756 8.15333L17.2093 9.044H17.2107ZM14.7893 9.044L15.244 8.15333L14.7907 9.044H14.7893ZM25.5 16.4107L25.256 18.684L27.2427 18.8973L27.488 16.6253L25.5 16.412V16.4107ZM17.4507 27H14.5493V29H17.4507V27ZM6.74401 18.684L6.50001 16.4107L4.51201 16.624L4.75601 18.8973L6.74401 18.684ZM12.5533 15.0653L14.94 10.788L13.1933 9.81333L10.8067 14.092L12.5533 15.0653ZM17.06 10.788L19.4467 15.0653L21.1933 14.092L18.8067 9.81333L17.06 10.788ZM19.4467 15.0653C19.6627 15.452 19.86 15.812 20.0533 16.0853C20.252 16.3667 20.52 16.6787 20.9347 16.8613L21.7413 15.0307C21.816 15.0627 21.8027 15.0973 21.6893 14.936C21.5115 14.6622 21.346 14.3806 21.1933 14.092L19.4467 15.0653ZM22.588 14.2853C22.244 14.6293 22.0387 14.832 21.8773 14.9613C21.724 15.0853 21.7213 15.0493 21.8013 15.0387L22.0747 17.02C22.5227 16.9573 22.868 16.732 23.136 16.516C23.396 16.3053 23.6853 16.0147 24 15.7027L22.588 14.2853ZM20.9347 16.8613C21.2933 17.0187 21.688 17.0733 22.0747 17.02L21.8013 15.0387C21.781 15.0416 21.7602 15.0389 21.7413 15.0307L20.9347 16.8613ZM8.00134 15.7013C8.31468 16.0147 8.60401 16.3053 8.86401 16.5147C9.13201 16.7333 9.47734 16.9573 9.92534 17.02L10.1987 15.0387C10.2787 15.0493 10.276 15.0853 10.1227 14.9613C9.87587 14.7467 9.63875 14.5211 9.41201 14.2853L8.00001 15.7027L8.00134 15.7013ZM10.8067 14.092C10.6535 14.3806 10.4876 14.6622 10.3093 14.936C10.1973 15.096 10.184 15.0627 10.2587 15.0293L11.064 16.8613C11.4773 16.6787 11.7493 16.368 11.9467 16.0853C12.1387 15.8107 12.3373 15.452 12.5533 15.0653L10.8067 14.092ZM9.92534 17.02C10.312 17.0733 10.7067 17.02 11.064 16.8613L10.2587 15.0293C10.2398 15.0375 10.219 15.0416 10.1987 15.0387L9.92534 17.02ZM14.5493 27C12.632 27 11.2893 26.9987 10.2653 26.8667C9.26801 26.74 8.70534 26.5027 8.28268 26.1253L6.94934 27.616C7.78934 28.368 8.80268 28.696 10.0107 28.8507C11.192 29.0013 12.6853 29 14.5493 29V27ZM4.75601 18.8973C4.95334 20.7347 5.11068 22.5333 5.37734 23.992C5.51201 24.728 5.68268 25.4213 5.91734 26.0227C6.15068 26.62 6.47334 27.1893 6.94934 27.616L8.28268 26.1253C8.12801 25.9867 7.95201 25.7333 7.78001 25.2947C7.58375 24.7552 7.43824 24.1985 7.34534 23.632C7.09468 22.2693 6.94801 20.592 6.74401 18.684L4.75601 18.8973ZM25.256 18.684C25.0507 20.592 24.904 22.2693 24.656 23.6307C24.532 24.3067 24.3893 24.86 24.22 25.2947C24.048 25.7333 23.872 25.988 23.7173 26.1253L25.0507 27.616C25.5267 27.1893 25.8493 26.62 26.0827 26.0227C26.3173 25.4213 26.488 24.728 26.6227 23.992C26.8893 22.5333 27.0467 20.7333 27.244 18.8973L25.256 18.684ZM17.4507 29C19.3147 29 20.808 29.0013 21.9893 28.8507C23.1987 28.696 24.2107 28.368 25.0507 27.616L23.7173 26.1253C23.2947 26.5027 22.732 26.7387 21.7347 26.8667C20.7107 26.9987 19.368 27 17.4507 27V29ZM14.3333 6.66667C14.3333 5.74667 15.08 5 16 5V3C15.0275 3 14.0949 3.38631 13.4073 4.07394C12.7197 4.76158 12.3333 5.69421 12.3333 6.66667H14.3333ZM16 5C16.92 5 17.6667 5.74667 17.6667 6.66667H19.6667C19.6667 5.69421 19.2804 4.76158 18.5927 4.07394C17.9051 3.38631 16.9725 3 16 3V5ZM27.6667 12C27.6667 12.2652 27.5613 12.5196 27.3738 12.7071C27.1862 12.8946 26.9319 13 26.6667 13V15C27.4623 15 28.2254 14.6839 28.788 14.1213C29.3506 13.5587 29.6667 12.7956 29.6667 12H27.6667ZM25.6667 12C25.6667 11.7348 25.772 11.4804 25.9596 11.2929C26.1471 11.1054 26.4015 11 26.6667 11V9C25.871 9 25.108 9.31607 24.5454 9.87868C23.9827 10.4413 23.6667 11.2044 23.6667 12H25.6667ZM26.6667 11C26.9319 11 27.1862 11.1054 27.3738 11.2929C27.5613 11.4804 27.6667 11.7348 27.6667 12H29.6667C29.6667 11.2044 29.3506 10.4413 28.788 9.87868C28.2254 9.31607 27.4623 9 26.6667 9V11ZM5.33334 13C5.06813 13 4.81377 12.8946 4.62624 12.7071C4.4387 12.5196 4.33334 12.2652 4.33334 12H2.33334C2.33334 12.7956 2.64941 13.5587 3.21202 14.1213C3.77463 14.6839 4.53769 15 5.33334 15V13ZM4.33334 12C4.33334 11.7348 4.4387 11.4804 4.62624 11.2929C4.81377 11.1054 5.06813 11 5.33334 11V9C4.53769 9 3.77463 9.31607 3.21202 9.87868C2.64941 10.4413 2.33334 11.2044 2.33334 12H4.33334ZM5.33334 11C5.59856 11 5.85291 11.1054 6.04045 11.2929C6.22799 11.4804 6.33334 11.7348 6.33334 12H8.33334C8.33334 11.2044 8.01727 10.4413 7.45466 9.87868C6.89205 9.31607 6.12899 9 5.33334 9V11ZM26.6667 13C26.6627 13 26.6587 13 26.6547 13L26.632 15H26.6667V13ZM27.488 16.6253C27.5533 16.0253 27.6093 15.5013 27.64 15.064C27.6777 14.6657 27.6759 14.2646 27.6347 13.8667L25.652 14.1333C25.672 14.28 25.6733 14.52 25.6453 14.9227C25.6187 15.3147 25.5667 15.7987 25.5 16.4107L27.488 16.6253ZM26.6547 13C26.5129 12.9986 26.3731 12.9669 26.2446 12.9071C26.116 12.8474 26.0018 12.7608 25.9093 12.6533L24.396 13.96C24.9373 14.5867 25.7373 14.9893 26.632 15L26.6547 13ZM25.9093 12.6533C25.7521 12.4721 25.6659 12.24 25.6667 12H23.6667C23.6667 12.748 23.9427 13.4347 24.396 13.96L25.9093 12.6533ZM24 15.7027C24.9027 14.8027 25.368 14.3493 25.6773 14.1573L24.628 12.456C24.068 12.8027 23.396 13.48 22.588 14.2853L24 15.7027ZM6.33334 12C6.33414 12.24 6.24792 12.4721 6.09068 12.6533L7.60401 13.96C8.05734 13.4347 8.33334 12.748 8.33334 12H6.33334ZM9.41201 14.2853C8.60401 13.48 7.93201 12.8013 7.37201 12.456L6.32268 14.1573C6.63201 14.3493 7.09601 14.8027 8.00001 15.7027L9.41201 14.2853ZM6.09068 12.6533C5.99827 12.7608 5.88398 12.8474 5.75544 12.9071C5.62691 12.9669 5.48709 12.9986 5.34534 13L5.36801 15C5.79313 14.995 6.21232 14.8997 6.59781 14.7204C6.9833 14.5411 7.32628 14.2819 7.60401 13.96L6.09068 12.6533ZM5.34534 13C5.34134 13 5.33734 13 5.33334 13V15H5.36801L5.34534 13ZM6.50001 16.4107C6.44302 15.9155 6.39457 15.4195 6.35468 14.9227C6.3281 14.6603 6.32587 14.3961 6.34801 14.1333L4.36534 13.8667C4.32414 14.2646 4.32235 14.6657 4.36001 15.064C4.39068 15.5013 4.44668 16.024 4.51201 16.624L6.50001 16.4107ZM17.6667 6.66667C17.6667 7.31333 17.2987 7.876 16.756 8.15333L17.664 9.93467C18.2668 9.62768 18.7729 9.15994 19.1263 8.58317C19.4798 8.00641 19.6668 7.34311 19.6667 6.66667H17.6667ZM16.756 8.15333C16.5293 8.268 16.2747 8.33333 16 8.33333V10.3333C16.5973 10.3333 17.164 10.1893 17.664 9.93333L16.756 8.15333ZM18.8067 9.81333C18.532 9.32 18.2853 8.876 18.0587 8.51333L16.3627 9.57333C16.5573 9.88533 16.776 10.2813 17.06 10.788L18.8067 9.81333ZM16 8.33333C15.7253 8.33333 15.4693 8.26667 15.244 8.15333L14.336 9.93467C14.836 10.1893 15.4027 10.3333 16 10.3333V8.33333ZM15.244 8.15333C14.9698 8.01375 14.7395 7.80097 14.5788 7.53857C14.4181 7.27617 14.3331 6.97439 14.3333 6.66667H12.3333C12.3335 7.34289 12.5206 8.0059 12.874 8.58241C13.2275 9.15891 13.7334 9.62645 14.336 9.93333L15.244 8.15333ZM14.94 10.788C15.2227 10.2787 15.4427 9.88533 15.6373 9.57467L13.9413 8.51333C13.7147 8.876 13.468 9.32 13.1933 9.81333L14.94 10.788Z" fill="#242424"/>
</g>
</g>
</svg>
