<svg width="32" height="32" viewBox="0 0 32 32" fill="none" xmlns="http://www.w3.org/2000/svg">
<g id="solar:book-bookmark-line-duotone">
<g id="Group">
<path id="Vector" d="M5.33334 10.6667C5.33334 6.89608 5.33334 5.00941 6.50534 3.83875C7.67601 2.66675 9.56268 2.66675 13.3333 2.66675H18.6667C22.4373 2.66675 24.324 2.66675 25.4947 3.83875C26.6667 5.00941 26.6667 6.89608 26.6667 10.6667V21.3334C26.6667 25.1041 26.6667 26.9907 25.4947 28.1614C24.324 29.3334 22.4373 29.3334 18.6667 29.3334H13.3333C9.56268 29.3334 7.67601 29.3334 6.50534 28.1614C5.33334 26.9907 5.33334 25.1041 5.33334 21.3334V10.6667Z" stroke="#242424" stroke-width="2"/>
<path id="Vector_2" d="M10.6667 9.3335H21.3334M10.6667 14.0002H17.3334M17.3334 21.3335V26.0402C17.3334 26.4082 17.3334 26.5922 17.2067 26.6668C17.08 26.7415 16.908 26.6588 16.5614 26.4935L14.9054 25.7068C14.788 25.6535 14.7294 25.6242 14.6667 25.6242C14.604 25.6242 14.5454 25.6522 14.428 25.7082L12.772 26.4948C12.4254 26.6588 12.252 26.7415 12.1267 26.6668C12 26.5922 12 26.4082 12 26.0402V21.9335" stroke="#1FB53A" stroke-width="2" stroke-linecap="round"/>
<path id="Vector_3" d="M26.5307 21.3335H10.5307C9.29068 21.3335 8.67068 21.3335 8.16134 21.4695C7.48309 21.6514 6.86467 22.0086 6.36825 22.5052C5.87182 23.0019 5.5149 23.6205 5.33334 24.2988" stroke="#242424" stroke-width="2"/>
</g>
</g>
</svg>
