<svg width="32" height="32" viewBox="0 0 32 32" fill="none" xmlns="http://www.w3.org/2000/svg">
<path d="M29.3333 18.6665V15.9665C29.3333 13.5052 29.3333 12.2758 28.8107 11.3558C28.4548 10.73 27.9365 10.2117 27.3107 9.85584C26.3907 9.33317 25.1613 9.33317 22.7 9.33317H22.3267C22.1627 9.33317 22.0813 9.33317 22.0067 9.32517C21.8115 9.30296 21.6236 9.2379 21.4565 9.13464C21.2894 9.03138 21.1472 8.89246 21.04 8.72784C20.9847 8.63597 20.9344 8.54116 20.8893 8.44384C20.7427 8.1505 20.6693 8.00384 20.5853 7.87717C20.3713 7.54865 20.0874 7.27138 19.7539 7.06511C19.4204 6.85885 19.0455 6.72866 18.656 6.68384C18.5027 6.6665 18.34 6.6665 18.0107 6.6665H13.9867C13.6587 6.6665 13.4933 6.6665 13.344 6.68384C12.9542 6.72848 12.5791 6.85857 12.2454 7.06484C11.9116 7.27112 11.6275 7.54849 11.4133 7.87717C11.3293 8.00384 11.256 8.1505 11.1093 8.44384C11.036 8.5905 11 8.66384 10.9587 8.72784C10.8515 8.89206 10.7094 9.03061 10.5425 9.13363C10.3757 9.23665 10.1882 9.30159 9.99332 9.32384C9.91866 9.33317 9.83732 9.33317 9.67332 9.33317H9.29999C6.83866 9.33317 5.60932 9.33317 4.68932 9.85584C4.06344 10.2117 3.54521 10.73 3.18932 11.3558C2.66666 12.2758 2.66666 13.5052 2.66666 15.9665V18.6665C2.66666 22.4372 2.66666 24.3238 3.83866 25.4945C5.00932 26.6665 6.89599 26.6665 10.6667 26.6665H21.3333C25.104 26.6665 26.9907 26.6665 28.1613 25.4945C29.3333 24.3238 29.3333 22.4372 29.3333 18.6665Z" stroke="#242424" stroke-width="2"/>
<path opacity="0.5" d="M9.33333 9.33325V7.99992C9.33333 6.74259 9.33333 6.11459 8.94267 5.72392C8.552 5.33325 7.924 5.33325 6.66667 5.33325C5.40933 5.33325 4.78133 5.33325 4.39067 5.72392C4 6.11459 4 6.74259 4 7.99992V9.99992M28 10.6666V7.99992C28 6.74259 28 6.11459 27.6093 5.72392C27.2187 5.33325 26.5907 5.33325 25.3333 5.33325C24.076 5.33325 23.448 5.33325 23.0573 5.72392C22.6667 6.11459 22.6667 6.74259 22.6667 7.99992V9.33325" stroke="#242424" stroke-width="2"/>
<path d="M12 18H8M24 18H22M22 18H20M22 18V16M22 18V20" stroke="#1FB53A" stroke-width="2" stroke-linecap="round"/>
</svg>
