<svg width="28" height="28" viewBox="0 0 28 28" fill="none" xmlns="http://www.w3.org/2000/svg">
<path d="M16.3333 8.16657L12.4915 4.32473C12.3832 4.2163 12.2547 4.13027 12.1131 4.07157C11.9716 4.01288 11.8199 3.98267 11.6667 3.98267C11.5134 3.98267 11.3617 4.01288 11.2202 4.07157C11.0787 4.13027 10.9501 4.2163 10.8418 4.32473L7 8.16657" stroke="#1FB53A" stroke-width="2" stroke-linecap="round" stroke-linejoin="round"/>
<path d="M14 5.83323L15.5085 4.32473C15.6168 4.2163 15.7453 4.13027 15.8869 4.07157C16.0284 4.01288 16.1801 3.98267 16.3333 3.98267C16.4866 3.98267 16.6383 4.01288 16.7798 4.07157C16.9213 4.13027 17.0499 4.2163 17.1582 4.32473L21 8.16657" stroke="#1FB53A" stroke-width="1.5" stroke-linecap="round" stroke-linejoin="round"/>
<path d="M24.5 14H20.3221C19.4075 14 18.6666 14.7408 18.6666 15.6555V17.0112C18.6666 17.9258 19.4075 18.6667 20.3221 18.6667H24.5" stroke="#303032" stroke-width="2" stroke-linecap="round" stroke-linejoin="round"/>
<path d="M22.1667 24.4998H5.83333C5.21449 24.4998 4.621 24.254 4.18342 23.8164C3.74583 23.3788 3.5 22.7853 3.5 22.1665V10.4998C3.5 9.881 3.74583 9.28751 4.18342 8.84992C4.621 8.41234 5.21449 8.1665 5.83333 8.1665H22.1667C22.7855 8.1665 23.379 8.41234 23.8166 8.84992C24.2542 9.28751 24.5 9.881 24.5 10.4998V22.1665C24.5 22.7853 24.2542 23.3788 23.8166 23.8164C23.379 24.254 22.7855 24.4998 22.1667 24.4998Z" stroke="#303032" stroke-width="2" stroke-linecap="round" stroke-linejoin="round"/>
</svg>
