<svg width="40" height="40" viewBox="0 0 40 40" fill="none" xmlns="http://www.w3.org/2000/svg">
<circle cx="18" cy="22" r="18" fill="white"/>
<path d="M15.708 28.344V28.709C15.7081 29.3169 15.9497 29.8998 16.3797 30.3296C16.8096 30.7593 17.3926 31.0006 18.0005 31.0005C18.6084 31.0004 19.1913 30.7588 19.621 30.3289C20.0508 29.8989 20.2921 29.3159 20.292 28.708V28.343" stroke="#303032" stroke-width="1.5" stroke-linecap="round" stroke-linejoin="round"/>
<path d="M19.833 15.751V14.833C19.833 14.5923 19.7856 14.3539 19.6935 14.1315C19.6013 13.9092 19.4663 13.7071 19.2961 13.5369C19.1259 13.3667 18.9238 13.2316 18.7015 13.1395C18.4791 13.0474 18.2407 13 18 13C17.7593 13 17.5209 13.0474 17.2985 13.1395C17.0761 13.2316 16.8741 13.3667 16.7039 13.5369C16.5337 13.7071 16.3986 13.9092 16.3065 14.1315C16.2144 14.3539 16.167 14.5923 16.167 14.833V15.751" stroke="#303032" stroke-width="1.5" stroke-linecap="round" stroke-linejoin="round"/>
<path d="M12.563 20.188C12.5629 19.5929 12.68 19.0037 12.9076 18.4539C13.1353 17.9041 13.469 17.4046 13.8898 16.9838C14.3106 16.563 14.8101 16.2293 15.3599 16.0016C15.9097 15.774 16.4989 15.6569 17.094 15.657H18.907C19.5021 15.6569 20.0913 15.774 20.6411 16.0016C21.1909 16.2293 21.6904 16.563 22.1112 16.9838C22.532 17.4046 22.8657 17.9041 23.0934 18.4539C23.321 19.0037 23.4381 19.5929 23.438 20.188V22.985C23.4381 23.5154 23.6489 24.024 24.024 24.399L24.665 25.04C25.0401 25.415 25.2509 25.9236 25.251 26.454C25.251 26.7022 25.2021 26.9479 25.1071 27.1773C25.0122 27.4066 24.8729 27.6149 24.6974 27.7904C24.5219 27.9659 24.3136 28.1051 24.0843 28.2001C23.855 28.2951 23.6092 28.344 23.361 28.344H12.64C12.1387 28.344 11.658 28.1449 11.3036 27.7904C10.9491 27.436 10.75 26.9552 10.75 26.454C10.7501 25.9236 10.9609 25.415 11.336 25.04L11.977 24.399C12.3521 24.024 12.5629 23.5154 12.563 22.985V20.188Z" stroke="#303032" stroke-width="1.5" stroke-linecap="round" stroke-linejoin="round"/>
<rect x="24" width="16" height="16" rx="8" fill="#F04438"/>
<path d="M31.9443 11.59C30.4843 11.59 29.4543 10.73 29.4443 9.51H30.7943C30.8343 10.12 31.2743 10.49 31.9643 10.49C32.6843 10.49 33.1043 10.13 33.1043 9.53C33.1043 8.94 32.6143 8.59 31.7843 8.59H31.0543V7.49H31.7043C32.3843 7.49 32.7943 7.15 32.7943 6.6C32.7943 6.07 32.4443 5.74 31.8643 5.74C31.2943 5.74 30.9343 6.1 30.9243 6.69H29.5743C29.5843 5.52 30.6043 4.64 31.9343 4.64C33.3543 4.64 34.2243 5.41 34.2243 6.5C34.2243 7.12 33.8643 7.61 33.2143 7.95C34.0543 8.22 34.5343 8.76 34.5343 9.49C34.5343 10.74 33.4943 11.59 31.9443 11.59Z" fill="white"/>
</svg>
