<svg width="24" height="24" viewBox="0 0 24 24" fill="none" xmlns="http://www.w3.org/2000/svg">
<path d="M4 9.75H6.25M4 6.375H6.25M4 14.25H6.25M4 17.625H6.25M7.375 3H18.625C19.2217 3 19.794 3.23705 20.216 3.65901C20.6379 4.08097 20.875 4.65326 20.875 5.25V18.75C20.875 19.3467 20.6379 19.919 20.216 20.341C19.794 20.7629 19.2217 21 18.625 21H7.375C6.77826 21 6.20597 20.7629 5.78401 20.341C5.36205 19.919 5.125 19.3467 5.125 18.75V5.25C5.125 4.65326 5.36205 4.08097 5.78401 3.65901C6.20597 3.23705 6.77826 3 7.375 3Z" stroke="#303032" stroke-width="1.5" stroke-linecap="round" stroke-linejoin="round"/>
<path d="M14.728 10.0718C14.728 10.53 14.5459 10.9696 14.2219 11.2936C13.8978 11.6177 13.4583 11.7997 13 11.7997C12.5417 11.7997 12.1022 11.6177 11.7781 11.2936C11.454 10.9696 11.272 10.53 11.272 10.0718C11.272 9.61346 11.454 9.17393 11.7781 8.84987C12.1022 8.52581 12.5417 8.34375 13 8.34375C13.4583 8.34375 13.8978 8.52581 14.2219 8.84987C14.5459 9.17393 14.728 9.61346 14.728 10.0718Z" stroke="#303032" stroke-width="1.5"/>
<path d="M9.78589 16.5C9.78589 15.2141 11.2248 13.9282 13 13.9282C14.7753 13.9282 16.2141 15.2141 16.2141 16.5" stroke="#303032" stroke-width="1.5" stroke-linecap="round" stroke-linejoin="round"/>
</svg>
