<svg width="33" height="32" viewBox="0 0 33 32" fill="none" xmlns="http://www.w3.org/2000/svg">
<path d="M22.2857 12.4958H21.0213C20.092 12.4958 19.2006 12.865 18.5435 13.5222C17.8863 14.1794 17.5171 15.0707 17.5171 16.0001C17.5171 16.9295 17.8863 17.8208 18.5435 18.478C19.2006 19.1351 20.092 19.5043 21.0213 19.5043H22.3361C22.5786 19.5043 22.7735 19.3081 22.7735 19.067V16.0001H21.411" stroke="#303032" stroke-width="2" stroke-linecap="round" stroke-linejoin="round"/>
<path d="M13.1946 19.855V18.0958M13.1946 18.0958H14.365H9.88099C9.7457 18.0964 9.61267 18.0613 9.49528 17.994C9.3779 17.9268 9.28032 17.8298 9.21237 17.7128C9.14443 17.5958 9.10852 17.463 9.10828 17.3277C9.10803 17.1924 9.14345 17.0595 9.21097 16.9422C10.0806 15.4442 10.9694 13.9573 11.877 12.482C12.2541 11.8709 13.1946 12.1456 13.1946 12.8633V18.0958Z" stroke="#303032" stroke-width="2" stroke-linecap="round" stroke-linejoin="round"/>
<path d="M26.6282 16H30.8333" stroke="#F15523" stroke-width="2" stroke-linecap="round" stroke-linejoin="round"/>
<path d="M28.7307 13.8975V18.1026" stroke="#F15523" stroke-width="2" stroke-linecap="round" stroke-linejoin="round"/>
<path d="M25.0359 24.9206C23.8645 26.092 22.4738 27.0213 20.9432 27.6553C19.4126 28.2893 17.7722 28.6156 16.1155 28.6156C14.4588 28.6156 12.8184 28.2893 11.2878 27.6553C9.75725 27.0213 8.36655 26.092 7.19511 24.9206C6.02365 23.7491 5.09441 22.3584 4.46042 20.8279C3.82643 19.2973 3.50012 17.6568 3.50012 16.0002C3.50012 14.3435 3.82643 12.703 4.46042 11.1725C5.09441 9.6419 6.02365 8.25119 7.19511 7.07975C8.36655 5.9083 9.75725 4.97905 11.2878 4.34506C12.8184 3.71107 14.4588 3.38477 16.1155 3.38477C17.7722 3.38477 19.4126 3.71107 20.9432 4.34506C22.4738 4.97905 23.8645 5.9083 25.0359 7.07975" stroke="#303032" stroke-width="2" stroke-linecap="round" stroke-linejoin="round"/>
</svg>
