<svg width="33" height="32" viewBox="0 0 33 32" fill="none" xmlns="http://www.w3.org/2000/svg">
<path d="M23.1667 2.66675H9.83335C8.36059 2.66675 7.16669 3.86066 7.16669 5.33341V26.6667C7.16669 28.1395 8.36059 29.3334 9.83335 29.3334H23.1667C24.6394 29.3334 25.8334 28.1395 25.8334 26.6667V5.33341C25.8334 3.86066 24.6394 2.66675 23.1667 2.66675Z" stroke="#303032" stroke-width="2" stroke-linecap="round" stroke-linejoin="round"/>
<path d="M16.5 12.0001C15.0266 12.0001 13.8333 12.8961 13.8333 14.0001C13.8333 15.1041 15.0266 16.0001 16.5 16.0001C17.9733 16.0001 19.1666 16.8961 19.1666 18.0001C19.1666 19.1041 17.9733 20.0001 16.5 20.0001M16.5 12.0001C17.66 12.0001 18.6493 12.5561 19.0146 13.3334M16.5 12.0001V10.6667M16.5 20.0001C15.34 20.0001 14.3506 19.4441 13.9853 18.6667M16.5 20.0001V21.3334" stroke="#1FB53A" stroke-width="2" stroke-linecap="round"/>
</svg>
