<svg width="33" height="32" viewBox="0 0 33 32" fill="none" xmlns="http://www.w3.org/2000/svg">
<path d="M28.5378 8.81509V11.7282C28.5378 13.6302 27.334 14.834 25.432 14.834H21.3151V6.41959C21.3151 5.0834 22.4106 4 23.7467 4C25.0589 4.01204 26.2626 4.5417 27.1294 5.40842C27.9961 6.28717 28.5378 7.49094 28.5378 8.81509Z" stroke="#303032" stroke-width="2" stroke-miterlimit="10" stroke-linecap="round" stroke-linejoin="round"/>
<path d="M4.46228 10.0189V26.8717C4.46228 27.8708 5.59383 28.4366 6.38832 27.8347L8.44677 26.2939C8.92828 25.9328 9.60239 25.9809 10.0358 26.4143L12.034 28.4246C12.5035 28.894 13.2739 28.894 13.7434 28.4246L15.7657 26.4022C16.187 25.9809 16.8611 25.9328 17.3306 26.2939L19.3891 27.8347C20.1836 28.4246 21.3151 27.8588 21.3151 26.8717V6.40755C21.3151 5.0834 22.3985 4 23.7227 4H9.27737C5.66605 4 4.46228 6.15475 4.46228 8.81509V10.0189Z" stroke="#303032" stroke-width="2" stroke-miterlimit="10" stroke-linecap="round" stroke-linejoin="round"/>
<path d="M9.27734 12.4265H16.5" stroke="#1FB53A" stroke-width="2" stroke-linecap="round" stroke-linejoin="round"/>
<path d="M10.1802 17.2415H15.5972" stroke="#1FB53A" stroke-width="2" stroke-linecap="round" stroke-linejoin="round"/>
</svg>
