<svg width="33" height="32" viewBox="0 0 33 32" fill="none" xmlns="http://www.w3.org/2000/svg">
<path d="M25.119 5.78198C27.3752 7.75386 28.9157 10.4168 29.5003 13.3557" stroke="#303032" stroke-width="2" stroke-linecap="round" stroke-linejoin="round"/>
<path d="M7.21535 26.2178C4.95909 24.2459 3.4186 21.583 2.83398 18.644" stroke="#303032" stroke-width="2" stroke-linecap="round" stroke-linejoin="round"/>
<path d="M20.5484 28.865C17.7133 29.8419 14.6328 29.8419 11.7977 28.865" stroke="#1FB53A" stroke-width="2" stroke-linecap="round" stroke-linejoin="round"/>
<path d="M20.5484 3.13531C17.7133 2.15835 14.6328 2.15835 11.7977 3.13531" stroke="#1FB53A" stroke-width="2" stroke-linecap="round" stroke-linejoin="round"/>
<path d="M25.119 26.2178C27.3752 24.2459 28.9157 21.583 29.5003 18.644" stroke="#1FB53A" stroke-width="2" stroke-linecap="round" stroke-linejoin="round"/>
<path d="M2.83112 13.3557C3.41486 10.4165 4.95551 7.75327 7.21249 5.78198" stroke="#1FB53A" stroke-width="2" stroke-linecap="round" stroke-linejoin="round"/>
<path d="M17.1042 8.00443C17.0272 8.01522 16.9535 8.04275 16.8883 8.08508C16.823 8.12742 16.7678 8.18355 16.7264 8.24954L10.9152 17.3464C10.8647 17.4272 10.8366 17.5201 10.834 17.6154C10.8313 17.7107 10.8541 17.805 10.9 17.8886C10.9459 17.9721 11.0132 18.0418 11.095 18.0904C11.1768 18.1391 11.2701 18.1649 11.3652 18.1653H14.6208V24.2262C14.6215 24.3417 14.6594 24.4538 14.729 24.5459C14.7985 24.638 14.8959 24.705 15.0065 24.737C15.1172 24.769 15.2352 24.7642 15.343 24.7233C15.4507 24.6824 15.5423 24.6077 15.6042 24.5103L21.4154 15.419C21.4674 15.3381 21.4966 15.2446 21.5001 15.1485C21.5035 15.0523 21.481 14.957 21.4349 14.8726C21.3888 14.7882 21.3209 14.7178 21.2383 14.6688C21.1557 14.6199 21.0614 14.5942 20.9654 14.5945H17.7042V8.53921C17.7048 8.46299 17.6892 8.38752 17.6583 8.31786C17.6274 8.2482 17.582 8.18597 17.5252 8.13533C17.4684 8.08469 17.4014 8.04681 17.3288 8.02424C17.2562 8.00166 17.1796 7.99491 17.1042 8.00443Z" stroke="#303032" stroke-width="2"/>
</svg>
