<svg width="33" height="32" viewBox="0 0 33 32" fill="none" xmlns="http://www.w3.org/2000/svg">
<path d="M20.8067 21.3333L28.052 14.088C28.552 13.5879 28.8328 12.9097 28.8328 12.2026C28.8328 11.4955 28.552 10.8174 28.052 10.3173L23.8507 6.11597C23.3506 5.61605 22.6725 5.33521 21.9654 5.33521C21.2583 5.33521 20.5801 5.61605 20.08 6.11597L11.892 14.304C11.3921 14.804 11.1113 15.4822 11.1113 16.1893C11.1113 16.8964 11.3921 17.5746 11.892 18.0746L15.1507 21.3333" stroke="#303032" stroke-width="2" stroke-linecap="round" stroke-linejoin="round"/>
<path d="M27.5 26.6666H6.16671C5.81309 26.6666 5.47395 26.5261 5.2239 26.2761C4.97385 26.026 4.83337 25.6869 4.83337 25.3333V22.6666C4.83337 22.313 4.97385 21.9738 5.2239 21.7238C5.47395 21.4737 5.81309 21.3333 6.16671 21.3333H27.5C27.8537 21.3333 28.1928 21.4737 28.4429 21.7238C28.6929 21.9738 28.8334 22.313 28.8334 22.6666V25.3333C28.8334 25.6869 28.6929 26.026 28.4429 26.2761C28.1928 26.5261 27.8537 26.6666 27.5 26.6666Z" stroke="#303032" stroke-width="2" stroke-linecap="round" stroke-linejoin="round"/>
<path d="M4.83337 5.33325H11.5" stroke="#1FB53A" stroke-width="2" stroke-linecap="round" stroke-linejoin="round"/>
<path d="M4.83337 9.33325H8.83337" stroke="#1FB53A" stroke-width="2" stroke-linecap="round" stroke-linejoin="round"/>
<path d="M4.83337 13.3333H6.16671" stroke="#1FB53A" stroke-width="2" stroke-linecap="round" stroke-linejoin="round"/>
<path d="M12.9933 19.1731L24.9533 7.21313" stroke="#303032" stroke-width="2" stroke-linecap="round" stroke-linejoin="round"/>
</svg>
