<svg width="21" height="20" viewBox="0 0 21 20" fill="none" xmlns="http://www.w3.org/2000/svg">
<path d="M18.0236 5.50943V7.33014C18.0236 8.51887 17.2713 9.27123 16.0825 9.27123H13.5095V4.01224C13.5095 3.17712 14.1941 2.5 15.0292 2.5C15.8493 2.50752 16.6017 2.83856 17.1434 3.38026C17.685 3.92948 18.0236 4.68184 18.0236 5.50943Z" stroke="white" stroke-width="1.5" stroke-miterlimit="10" stroke-linecap="round" stroke-linejoin="round"/>
<path d="M2.97644 6.26179V16.7948C2.97644 17.4193 3.68366 17.7729 4.18021 17.3967L5.46675 16.4337C5.76769 16.208 6.18901 16.2381 6.45986 16.5089L7.70877 17.7654C8.00219 18.0588 8.4837 18.0588 8.77712 17.7654L10.0411 16.5014C10.3044 16.2381 10.7257 16.208 11.0192 16.4337L12.3057 17.3967C12.8022 17.7654 13.5095 17.4117 13.5095 16.7948V4.00472C13.5095 3.17712 14.1866 2.5 15.0142 2.5H5.98587C3.7288 2.5 2.97644 3.84672 2.97644 5.50943V6.26179Z" stroke="white" stroke-width="1.5" stroke-miterlimit="10" stroke-linecap="round" stroke-linejoin="round"/>
<path d="M6.17407 8.51904H10.312" stroke="white" stroke-width="1.5" stroke-linecap="round" stroke-linejoin="round"/>
<path d="M8.24304 10.5879V6.44995" stroke="white" stroke-width="1.5" stroke-linecap="round" stroke-linejoin="round"/>
</svg>
