<svg width="24" height="24" viewBox="0 0 24 24" fill="none" xmlns="http://www.w3.org/2000/svg">
<path d="M7.5 3H5C4.46957 3 3.96086 3.21071 3.58579 3.58579C3.21071 3.96086 3 4.46957 3 5V7.5" stroke="#303032" stroke-width="1.5" stroke-linecap="round" stroke-linejoin="round"/>
<path d="M3 16.5V19C3 19.5304 3.21071 20.0391 3.58579 20.4142C3.96086 20.7893 4.46957 21 5 21H7.5" stroke="#303032" stroke-width="1.5" stroke-linecap="round" stroke-linejoin="round"/>
<path d="M16.5 21H19C19.5304 21 20.0391 20.7893 20.4142 20.4142C20.7893 20.0391 21 19.5304 21 19V16.5" stroke="#303032" stroke-width="1.5" stroke-linecap="round" stroke-linejoin="round"/>
<path d="M21 7.5V5C21 4.46957 20.7893 3.96086 20.4142 3.58579C20.0391 3.21071 19.5304 3 19 3H16.5" stroke="#303032" stroke-width="1.5" stroke-linecap="round" stroke-linejoin="round"/>
<path d="M13.3372 11.3181C13.5078 11.4887 13.6431 11.6912 13.7355 11.9141C13.8278 12.137 13.8753 12.3758 13.8753 12.6171C13.8753 12.8583 13.8278 13.0972 13.7355 13.3201C13.6431 13.543 13.5078 13.7455 13.3372 13.9161C13.1666 14.0867 12.9641 14.222 12.7412 14.3143C12.5184 14.4066 12.2795 14.4542 12.0382 14.4542C11.797 14.4542 11.5581 14.4066 11.3352 14.3143C11.1123 14.222 10.9098 14.0867 10.7392 13.9161C10.3947 13.5716 10.2012 13.1043 10.2012 12.6171C10.2012 12.1299 10.3947 11.6626 10.7392 11.3181C11.0838 10.9736 11.551 10.78 12.0382 10.78C12.5255 10.78 12.9927 10.9736 13.3372 11.3181Z" stroke="#303032" stroke-width="1.5" stroke-linecap="round" stroke-linejoin="round"/>
<path d="M17.625 10.125V15.75C17.625 16.44 17.065 17 16.375 17H7.625C6.935 17 6.375 16.44 6.375 15.75V10.125C6.375 9.435 6.935 8.875 7.625 8.875H8.875L9.789 7.31C9.84399 7.21557 9.92281 7.13724 10.0176 7.08283C10.1123 7.02843 10.2197 6.99987 10.329 7H13.644C13.863 7 14.066 7.115 14.18 7.303L15.126 8.875H16.376C17.065 8.875 17.625 9.435 17.625 10.125Z" stroke="#303032" stroke-width="1.5" stroke-linecap="round" stroke-linejoin="round"/>
</svg>
