<svg width="25" height="24" viewBox="0 0 25 24" fill="none" xmlns="http://www.w3.org/2000/svg">
<rect width="24" height="24" transform="translate(0.25)" fill="#F3F3F3"/>
<path d="M20.8153 12.9057C21.0563 12.6991 21.1768 12.5958 21.2209 12.4729C21.2597 12.365 21.2597 12.247 21.2209 12.1391C21.1768 12.0162 21.0563 11.9129 20.8153 11.7063L12.4522 4.53794C12.0373 4.18232 11.8298 4.00451 11.6542 4.00015C11.5016 3.99637 11.3558 4.06342 11.2593 4.18178C11.1483 4.31796 11.1483 4.59118 11.1483 5.13762V9.37829C9.04078 9.747 7.11188 10.8149 5.67845 12.4184C4.11568 14.1665 3.25122 16.4288 3.25 18.7737V19.3779C4.28601 18.1299 5.57952 17.1205 7.04195 16.4189C8.33129 15.8004 9.72507 15.434 11.1483 15.3375V19.4743C11.1483 20.0208 11.1483 20.294 11.2593 20.4302C11.3558 20.5485 11.5016 20.6156 11.6542 20.6118C11.8298 20.6074 12.0373 20.4296 12.4522 20.074L20.8153 12.9057Z" stroke="#303032" stroke-width="1.5" stroke-linecap="round" stroke-linejoin="round"/>
</svg>
